<svg width="1156" height="56" viewBox="0 0 1156 56" fill="none" xmlns="http://www.w3.org/2000/svg">
<path d="M30.5456 55.0588C24.44 55.0588 19.2751 50.9769 17.6482 45.4085C13.4003 44.4883 9.63756 41.9636 7.17049 38.271L0 27.5294L7.17049 16.7878C9.63756 13.0952 13.4003 10.5705 17.6482 9.65034C19.2751 4.08193 24.4459 0 30.5456 0L1125.27 0C1131.37 0 1136.54 4.08193 1138.16 9.65034C1142.41 10.5705 1146.18 13.0952 1148.64 16.7878L1155.81 27.5294L1148.64 38.271C1146.17 41.9636 1142.41 44.4883 1138.16 45.4085C1136.54 50.9769 1131.37 55.0588 1125.27 55.0588H30.5456Z" fill="#FFF6C6"/>
<path d="M1125.19 50.9294H1125.32C1130.45 50.9294 1134.61 46.7826 1134.61 41.6684C1138.89 41.6684 1142.88 39.5331 1145.25 35.9879L1150.89 27.535L1145.25 19.0821C1142.88 15.5311 1138.89 13.4016 1134.61 13.4016C1134.61 8.28744 1130.45 4.14062 1125.32 4.14062H1125.19L29.5693 4.14089H29.4392C24.3098 4.14089 20.1507 8.28767 20.1507 13.4019C15.8732 13.4019 11.8797 15.5373 9.51324 19.0824L3.86914 27.5353L9.51324 35.9882C11.8797 39.5393 15.8732 41.6687 20.1507 41.6687C20.1507 46.7829 24.3098 50.9297 29.4392 50.9297L1125.19 50.9294H1125.19Z" stroke="#A66005" stroke-miterlimit="10"/>
</svg>
