<svg width="979" height="246" viewBox="0 0 979 246" fill="none" xmlns="http://www.w3.org/2000/svg">
<g filter="url(#filter0_d_66_69)">
<path d="M893.512 0H894.889C906.494 0 915.9 9.42014 915.9 21.0413C932.837 21.0413 946.561 34.7851 946.561 51.7472V64.1216C946.561 77.0437 949.736 82.8699 956.075 94.129C960.207 101.475 966.029 109.115 974.126 115.19C966.029 121.265 960.207 128.904 956.075 136.251C949.736 147.51 946.561 160.275 946.561 173.198V185.572C946.561 202.534 932.837 216.278 915.9 216.278C915.9 227.899 906.494 237.319 894.889 237.319H893.512H84.6162H83.2389C71.6347 237.319 62.2282 227.899 62.2282 216.278C45.2907 216.278 31.5669 202.534 31.5669 185.572V173.198C31.5669 160.275 28.3923 147.51 22.053 136.251C17.9212 128.904 12.0995 121.265 4.00195 115.19C12.0995 109.115 17.9212 101.475 22.053 94.129C28.3923 82.8699 31.5669 77.0437 31.5669 64.1216V51.7472C31.5669 34.7851 45.2907 21.0413 62.2282 21.0413C62.2282 9.42014 71.6347 0 83.2389 0H84.6162H893.512Z" fill="black" fill-opacity="0.3" shape-rendering="crispEdges"/>
</g>
<path d="M67.5586 209.884H66.8652C51.3898 209.884 38.8429 197.259 38.8428 181.667V170.015C38.8428 157.736 35.8421 145.599 29.8438 134.888C26.0633 128.131 20.7759 121.095 13.4717 115.397C20.7756 109.7 26.0633 102.664 29.8438 95.9069C32.8061 90.6175 35.0653 86.5424 36.5742 82.2584C38.0903 77.9542 38.8427 73.461 38.8428 67.3141V55.6627C38.8428 40.0707 51.3897 27.4449 66.8652 27.4449H67.5586V26.7506C67.5587 21.4563 69.6955 15.9642 73.1621 11.7985C76.6285 7.63305 81.367 4.85809 86.543 4.85803H892.988C898.164 4.85808 902.903 7.63305 906.369 11.7985C909.836 15.9642 911.973 21.4563 911.973 26.7506V27.4449H912.666C928.142 27.4449 940.688 40.0707 940.688 55.6627V67.3141C940.689 73.461 941.441 77.9542 942.957 82.2584C944.466 86.5422 946.725 90.6168 949.688 95.9059C953.468 102.663 958.755 109.7 966.059 115.397C958.755 121.095 953.468 128.131 949.688 134.888C943.689 145.599 940.688 157.736 940.688 170.015V181.667C940.688 197.259 928.141 209.884 912.666 209.884H911.973V210.578C911.973 221.203 903.41 231.084 892.988 231.084H86.543C76.1212 231.084 67.5586 221.203 67.5586 210.578V209.884Z" stroke="#FFF7D5" stroke-width="1.38789"/>
<defs>
<filter id="filter0_d_66_69" x="0.00195312" y="0" width="978.125" height="245.319" filterUnits="userSpaceOnUse" color-interpolation-filters="sRGB">
<feFlood flood-opacity="0" result="BackgroundImageFix"/>
<feColorMatrix in="SourceAlpha" type="matrix" values="0 0 0 0 0 0 0 0 0 0 0 0 0 0 0 0 0 0 127 0" result="hardAlpha"/>
<feOffset dy="4"/>
<feGaussianBlur stdDeviation="2"/>
<feComposite in2="hardAlpha" operator="out"/>
<feColorMatrix type="matrix" values="0 0 0 0 0 0 0 0 0 0 0 0 0 0 0 0 0 0 0.25 0"/>
<feBlend mode="normal" in2="BackgroundImageFix" result="effect1_dropShadow_66_69"/>
<feBlend mode="normal" in="SourceGraphic" in2="effect1_dropShadow_66_69" result="shape"/>
</filter>
</defs>
</svg>
